PathFileType	4	(X/Y/Z)	/Users/itak/Documents/Research/Walk-IL/dataset/trc/00120_00007.trc
DataRate	CameraRate	NumFrames	NumMarkers	Units	OrigDataRate	OrigDataStartFrame	OrigNumFrames
100.000000	100.000000	4	53	mm	100.000000	0	723
Frame#	Time	RPSI			LPSI			L3			STRN			T10			C7			CLAV			RBAK			LBAK			LSHO			LUPA			LAEL			LAOL			LWTS			LWPS			LFRA			LIFD			LHPS			LHTS			RSHO			RUPA			RAEL			RAOL			RWTS			RWPS			RFRA			RIFD			RHTS			RHPS			RBHD			LFHD			RFHD			LBHD			LHIP			RHIP			RASI			LASI			LKNE			LTHI			LANK			LTIP			LTOE			LMT1			LMT5			LHEE			RKNE			RTHI			RANK			RTIP			RTOE			RMT1			RMT5			RHEE			
		X1	Y1	Z1	X2	Y2	Z2	X3	Y3	Z3	X4	Y4	Z4	X5	Y5	Z5	X6	Y6	Z6	X7	Y7	Z7	X8	Y8	Z8	X9	Y9	Z9	X10	Y10	Z10	X11	Y11	Z11	X12	Y12	Z12	X13	Y13	Z13	X14	Y14	Z14	X15	Y15	Z15	X16	Y16	Z16	X17	Y17	Z17	X18	Y18	Z18	X19	Y19	Z19	X20	Y20	Z20	X21	Y21	Z21	X22	Y22	Z22	X23	Y23	Z23	X24	Y24	Z24	X25	Y25	Z25	X26	Y26	Z26	X27	Y27	Z27	X28	Y28	Z28	X29	Y29	Z29	X30	Y30	Z30	X31	Y31	Z31	X32	Y32	Z32	X33	Y33	Z33	X34	Y34	Z34	X35	Y35	Z35	X36	Y36	Z36	X37	Y37	Z37	X38	Y38	Z38	X39	Y39	Z39	X40	Y40	Z40	X41	Y41	Z41	X42	Y42	Z42	X43	Y43	Z43	X44	Y44	Z44	X45	Y45	Z45	X46	Y46	Z46	X47	Y47	Z47	X48	Y48	Z48	X49	Y49	Z49	X50	Y50	Z50	X51	Y51	Z51	X52	Y52	Z52	X53	Y53	Z53	

1	0	-68.94441986083984	1132.5283203125	1220.055786132812	-63.81638717651367	1132.945556640625	1084.73095703125	-71.22705841064453	1165.41748046875	1149.393798828125	147.1503295898438	1361.150634765625	1156.176147460938	-108.6104888916016	1316.251342773438	1144.926635742188	-69.75627899169922	1607.811279296875	1128.923461914062	112.0280914306641	1496.272827148438	1149.353393554688	-129.8613891601562	1425.46484375	1216.069091796875	-69.02732849121094	1586.2890625	1025.908935546875	22.67385864257812	1569.1962890625	964.2479858398438	8.567400932312012	1436.810546875	894.0470581054688	29.00289726257324	1215.307739257812	882.2255249023438	-46.77988433837891	1205.094116210938	926.0438842773438	119.8082580566406	960.86279296875	956.2865600585938	45.42567443847656	932.6818237304688	915.0292358398438	47.15580368041992	1099.116577148438	886.7197265625	128.0201263427734	769.8697509765625	990.6436157226562	74.31690979003906	857.9945678710938	923.7693481445312	137.6387329101562	871.142578125	952.42041015625	-22.68192291259766	1588.645141601562	1314.119750976562	-43.02403259277344	1516.37890625	1378.155395507812	-51.53833389282227	1220.142456054688	1399.809936523438	-60.77936172485352	1219.769653320312	1304.321899414062	92.89055633544922	977.7921752929688	1376.873046875	18.54936027526855	959.4854736328125	1409.199951171875	-26.92988967895508	1146.58154296875	1413.451904296875	118.8746490478516	784.7263793945312	1352.987426757812	123.524169921875	869.4963989257812	1379.437133789062	58.65487289428711	861.114990234375	1411.487548828125	-21.98868179321289	1779.626220703125	1216.07666015625	131.4438934326172	1845.84228515625	1070.009765625	140.9438323974609	1850.585571289062	1200.514526367188	-41.10717391967773	1778.035034179688	1083.7880859375	31.52507209777832	1040.592651367188	982.2597045898438	52.95533752441406	1034.604248046875	1341.496337890625	135.1289825439453	1105.838745117188	1291.265991210938	138.9556427001953	1102.772094726562	1025.046142578125	34.17150497436523	539.7199096679688	1016.749145507812	18.16947555541992	686.0094604492188	987.8021240234375	-93.80967712402344	43.37731552124023	1028.134155273438	-75.06210327148438	296.5879821777344	992.270263671875	136.7981719970703	38.93262481689453	1089.112182617188	54.24288940429688	43.00502014160156	1121.858154296875	31.53703498840332	41.08906173706055	1006.663208007812	-164.8229370117188	44.34162139892578	1088.636596679688	26.62034225463867	543.110595703125	1300.529052734375	66.03435516357422	821.16015625	1332.209106445312	-92.9267578125	34.31635665893555	1272.0322265625	-5.095123291015625	411.2918395996094	1308.524169921875	144.3010711669922	47.85150527954102	1229.352172851562	85.31404113769531	40.06809997558594	1183.583740234375	42.34698486328125	42.63682556152344	1300.444091796875	-146.9086151123047	38.37782669067383	1220.975463867188	
2	0.01	-68.87619018554688	1132.521362304688	1220.096801757812	-63.71384048461914	1132.930419921875	1084.795776367188	-71.14603424072266	1165.42431640625	1149.435546875	147.2019805908203	1361.109130859375	1156.239013671875	-108.4666595458984	1316.2607421875	1144.979858398438	-69.62510681152344	1607.798583984375	1128.951904296875	112.1134796142578	1496.236328125	1149.404052734375	-129.786376953125	1425.468627929688	1216.060180664062	-68.86030578613281	1586.249633789062	1025.956665039062	22.82921981811523	1569.157836914062	964.2868041992188	8.743907928466797	1436.743408203125	894.0939331054688	29.16089820861816	1215.223266601562	882.3285522460938	-46.68938446044922	1205.046997070312	926.0907592773438	119.9330444335938	960.8209838867188	956.5050659179688	45.62458801269531	932.6251831054688	915.2208862304688	47.28607177734375	1099.0634765625	886.8675537109375	128.1642608642578	769.8168334960938	990.9334106445312	74.48366546630859	857.94384765625	923.999267578125	137.7859649658203	871.1018676757812	952.68115234375	-22.57868957519531	1588.6416015625	1314.153076171875	-42.9433479309082	1516.360229492188	1378.173461914062	-51.47146987915039	1220.130493164062	1399.8232421875	-60.72271347045898	1219.763305664062	1304.350341796875	92.92845916748047	977.7648315429688	1376.86279296875	18.58397102355957	959.4686279296875	1409.197631835938	-26.86819458007812	1146.553955078125	1413.452270507812	118.8786926269531	784.698974609375	1352.976806640625	123.5304565429688	869.4620361328125	1379.412963867188	58.65092086791992	861.0882568359375	1411.486572265625	-21.74213409423828	1779.635131835938	1216.141845703125	131.6955413818359	1845.796752929688	1070.127197265625	141.2319946289062	1850.477172851562	1200.643920898438	-40.90484619140625	1778.053588867188	1083.8828125	31.64726257324219	1040.570556640625	982.3428344726562	53.01626205444336	1034.589965820312	1341.567260742188	135.2062072753906	1105.808837890625	1291.341064453125	139.0368347167969	1102.7216796875	1025.107666015625	34.17790222167969	539.7118530273438	1016.771240234375	18.21282958984375	686.0016479492188	987.8333129882812	-93.81906890869141	43.37093353271484	1028.124389648438	-75.06101989746094	296.5863647460938	992.2753295898438	136.7998504638672	38.932373046875	1089.115844726562	54.24830627441406	43.00789642333984	1121.85595703125	31.54116630554199	41.08226776123047	1006.658447265625	-164.8207244873047	44.32845306396484	1088.6328125	26.68332672119141	543.094970703125	1300.562744140625	66.02233123779297	821.1182250976562	1332.336547851562	-92.92668914794922	34.31026077270508	1272.03857421875	-5.021047115325928	411.2825927734375	1308.538452148438	144.2975769042969	47.8621826171875	1229.358276367188	85.30905914306641	40.06805801391602	1183.583374023438	42.34938049316406	42.63628387451172	1300.442138671875	-146.9149475097656	38.37460708618164	1220.97216796875	
3	0.02	-68.79627227783203	1132.511474609375	1220.147705078125	-63.58042144775391	1132.912109375	1084.878662109375	-71.04266357421875	1165.431762695312	1149.48828125	147.2664489746094	1361.055053710938	1156.321044921875	-108.2844772338867	1316.2705078125	1145.04345703125	-69.46151733398438	1607.784790039062	1128.979248046875	112.2268981933594	1496.187255859375	1149.468383789062	-129.69189453125	1425.4755859375	1216.054321289062	-68.65397644042969	1586.192504882812	1026.015747070312	23.03025054931641	1569.1044921875	964.3406982421875	8.973320960998535	1436.656860351562	894.1599731445312	29.35002708435059	1215.111938476562	882.462158203125	-46.56667327880859	1204.985717773438	926.1542358398438	120.0794067382812	960.7642211914062	956.7781372070312	45.86125946044922	932.55322265625	915.461669921875	47.45645523071289	1098.993041992188	887.0567626953125	128.3404693603516	769.7499389648438	991.293701171875	74.68230438232422	857.8731689453125	924.2916259765625	137.956787109375	871.039794921875	953.0072631835938	-22.4473876953125	1588.6357421875	1314.196411132812	-42.84095764160156	1516.337768554688	1378.198608398438	-51.38530731201172	1220.115234375	1399.844970703125	-60.65287017822266	1219.756469726562	1304.386108398438	92.97690582275391	977.7288208007812	1376.847534179688	18.62706756591797	959.4451293945312	1409.195190429688	-26.78808784484863	1146.52099609375	1413.456176757812	118.8799209594727	784.662109375	1352.95263671875	123.5316162109375	869.418212890625	1379.371459960938	58.64913177490234	861.0516967773438	1411.476196289062	-21.42856025695801	1779.643188476562	1216.224975585938	132.0212097167969	1845.735473632812	1070.28466796875	141.5895385742188	1850.337524414062	1200.803100585938	-40.6476936340332	1778.072143554688	1084.000366210938	31.80987167358398	1040.54345703125	982.4578247070312	53.08707809448242	1034.570922851562	1341.658569335938	135.3034820556641	1105.773193359375	1291.43701171875	139.1503295898438	1102.656860351562	1025.190307617188	34.18319320678711	539.6995239257812	1016.801879882812	18.26650810241699	685.9896240234375	987.872314453125	-93.82902526855469	43.36349868774414	1028.112915039062	-75.06150054931641	296.5846557617188	992.2801513671875	136.8000183105469	38.93148422241211	1089.122802734375	54.25308990478516	43.010498046875	1121.85400390625	31.54425430297852	41.07395935058594	1006.6513671875	-164.8153076171875	44.3150634765625	1088.62744140625	26.77881813049316	543.076171875	1300.603149414062	66.02541351318359	821.0669555664062	1332.49462890625	-92.92885589599609	34.30532455444336	1272.043579101562	-4.918928623199463	411.2657165527344	1308.554321289062	144.2944183349609	47.87360382080078	1229.365234375	85.30485534667969	40.0688362121582	1183.58349609375	42.35160064697266	42.63632202148438	1300.439086914062	-146.9227905273438	38.37056350708008	1220.967407226562	
4	0.03	-68.70806884765625	1132.499389648438	1220.207397460938	-63.42036437988281	1132.891723632812	1084.976928710938	-70.92014312744141	1165.438842773438	1149.550415039062	147.3416900634766	1360.989868164062	1156.4208984375	-108.0721435546875	1316.279663085938	1145.113037109375	-69.27099609375	1607.771606445312	1129.001831054688	112.3673553466797	1496.126342773438	1149.544799804688	-129.5813140869141	1425.486938476562	1216.054443359375	-68.41944885253906	1586.117065429688	1026.083618164062	23.27257347106934	1569.037353515625	964.4091186523438	9.249401092529297	1436.554077148438	894.2455444335938	29.55883026123047	1214.977172851562	882.6229858398438	-46.4112663269043	1204.9111328125	926.2363891601562	120.2379150390625	960.6931762695312	957.0936889648438	46.11927795410156	932.468505859375	915.7406005859375	47.66190719604492	1098.906494140625	887.2802734375	128.5373687744141	769.6718139648438	991.7057495117188	74.89708709716797	857.7828979492188	924.6339721679688	138.1392974853516	870.9555053710938	953.383056640625	-22.29196548461914	1588.626831054688	1314.2490234375	-42.72018432617188	1516.313720703125	1378.231567382812	-51.28281784057617	1220.097412109375	1399.876708984375	-60.57295608520508	1219.75048828125	1304.42919921875	93.03431701660156	977.6849365234375	1376.826782226562	18.67723655700684	959.415283203125	1409.19287109375	-26.69199180603027	1146.484619140625	1413.46484375	118.8769683837891	784.6162719726562	1352.910034179688	123.5275268554688	869.366455078125	1379.310913085938	58.65008163452148	861.0054931640625	1411.452514648438	-21.0593147277832	1779.648071289062	1216.322509765625	132.4127044677734	1845.658813476562	1070.479858398438	142.0013122558594	1850.171142578125	1200.986328125	-40.33974838256836	1778.088134765625	1084.135620117188	32.0102424621582	1040.512329101562	982.60400390625	53.16329574584961	1034.547973632812	1341.767944335938	135.4168243408203	1105.733764648438	1291.550903320312	139.2964172363281	1102.579956054688	1025.293579101562	34.18546295166016	539.6827392578125	1016.841247558594	18.32825660705566	685.9739990234375	987.9183959960938	-93.83859252929688	43.35595703125	1028.099975585938	-75.06453704833984	296.5833435058594	992.28466796875	136.7981262207031	38.92962646484375	1089.134155273438	54.25597763061523	43.01211929321289	1121.8525390625	31.54587745666504	41.06449508666992	1006.64208984375	-164.8076934814453	44.30316543579102	1088.619140625	26.91049385070801	543.0549926757812	1300.647705078125	66.05258941650391	821.00927734375	1332.674194335938	-92.93334197998047	34.30287551879883	1272.045288085938	-4.78861141204834	411.2394409179688	1308.570434570312	144.2919616699219	47.88424682617188	1229.371704101562	85.30210876464844	40.06963729858398	1183.583984375	42.3536491394043	42.63743209838867	1300.434204101562	-146.9306793212891	38.366455078125	1220.961669921875	
